<?xml version="1.0" encoding="utf-8"?>
<!-- Generator: Adobe Illustrator 24.1.2, SVG Export Plug-In . SVG Version: 6.00 Build 0)  -->
<svg version="1.1" id="Layer_1" xmlns="http://www.w3.org/2000/svg" xmlns:xlink="http://www.w3.org/1999/xlink" x="0px" y="0px"
	 viewBox="0 0 285.5 285.5" style="enable-background:new 0 0 285.5 285.5;" xml:space="preserve">
<pattern  x="-113.3" y="398.7" width="28.8" height="28.8" patternUnits="userSpaceOnUse" id="_x31_0_dpi_20_x25_" viewBox="1.4 -30.2 28.8 28.8" style="overflow:visible;">
	<g>
		<rect x="1.4" y="-30.2" style="fill:none;" width="28.8" height="28.8"/>
		<g>
			<path style="fill:#231F20;" d="M30.2,0c0.8,0,1.4-0.6,1.4-1.4c0-0.8-0.6-1.4-1.4-1.4c-0.8,0-1.4,0.6-1.4,1.4
				C28.8-0.6,29.4,0,30.2,0z"/>
			<path style="fill:#231F20;" d="M15.8,0c0.8,0,1.4-0.6,1.4-1.4c0-0.8-0.6-1.4-1.4-1.4c-0.8,0-1.4,0.6-1.4,1.4
				C14.4-0.6,15,0,15.8,0z"/>
			<path style="fill:#231F20;" d="M30.2-14.4c0.8,0,1.4-0.6,1.4-1.4c0-0.8-0.6-1.4-1.4-1.4c-0.8,0-1.4,0.6-1.4,1.4
				C28.8-15,29.4-14.4,30.2-14.4z"/>
			<path style="fill:#231F20;" d="M15.8-14.4c0.8,0,1.4-0.6,1.4-1.4c0-0.8-0.6-1.4-1.4-1.4c-0.8,0-1.4,0.6-1.4,1.4
				C14.4-15,15-14.4,15.8-14.4z"/>
			<path style="fill:#231F20;" d="M8.6-7.2c0.8,0,1.4-0.6,1.4-1.4c0-0.8-0.6-1.4-1.4-1.4c-0.8,0-1.4,0.6-1.4,1.4
				C7.2-7.8,7.8-7.2,8.6-7.2z"/>
			<path style="fill:#231F20;" d="M23-7.2c0.8,0,1.4-0.6,1.4-1.4c0-0.8-0.6-1.4-1.4-1.4c-0.8,0-1.4,0.6-1.4,1.4
				C21.6-7.8,22.2-7.2,23-7.2z"/>
			<path style="fill:#231F20;" d="M8.6-21.6c0.8,0,1.4-0.6,1.4-1.4c0-0.8-0.6-1.4-1.4-1.4c-0.8,0-1.4,0.6-1.4,1.4
				C7.2-22.2,7.8-21.6,8.6-21.6z"/>
			<path style="fill:#231F20;" d="M23-21.6c0.8,0,1.4-0.6,1.4-1.4c0-0.8-0.6-1.4-1.4-1.4c-0.8,0-1.4,0.6-1.4,1.4
				C21.6-22.2,22.2-21.6,23-21.6z"/>
		</g>
		<g>
			<path style="fill:#231F20;" d="M1.4,0c0.8,0,1.4-0.6,1.4-1.4c0-0.8-0.6-1.4-1.4-1.4C0.6-2.9,0-2.2,0-1.4C0-0.6,0.6,0,1.4,0z"/>
			<path style="fill:#231F20;" d="M1.4-14.4c0.8,0,1.4-0.6,1.4-1.4c0-0.8-0.6-1.4-1.4-1.4c-0.8,0-1.4,0.6-1.4,1.4
				C0-15,0.6-14.4,1.4-14.4z"/>
		</g>
		<g>
			<path style="fill:#231F20;" d="M30.2-28.8c0.8,0,1.4-0.6,1.4-1.4c0-0.8-0.6-1.4-1.4-1.4c-0.8,0-1.4,0.6-1.4,1.4
				C28.8-29.4,29.4-28.8,30.2-28.8z"/>
			<path style="fill:#231F20;" d="M15.8-28.8c0.8,0,1.4-0.6,1.4-1.4c0-0.8-0.6-1.4-1.4-1.4c-0.8,0-1.4,0.6-1.4,1.4
				C14.4-29.4,15-28.8,15.8-28.8z"/>
		</g>
		<g>
			<path style="fill:#231F20;" d="M1.4-28.8c0.8,0,1.4-0.6,1.4-1.4c0-0.8-0.6-1.4-1.4-1.4C0.6-31.7,0-31,0-30.2
				C0-29.4,0.6-28.8,1.4-28.8z"/>
		</g>
	</g>
</pattern>
<linearGradient id="SVGID_1_" gradientUnits="userSpaceOnUse" x1="1" y1="284.4646" x2="284.4646" y2="1">
	<stop  offset="0.5" style="stop-color:#00AA56"/>
	<stop  offset="0.5" style="stop-color:#FCEA10"/>
</linearGradient>
<rect x="1" y="1" style="fill:url(#SVGID_1_);stroke:#FFFFFF;stroke-width:2;" width="283.5" height="283.5"/>
<g>
	<g>
		<path style="fill:#1D1D1B;" d="M140.1,241.6c-3.9,0-7-3.2-7-7v-56.7c0-3.9,3.2-7,7-7h56.7c3.9,0,7,3.2,7,7.1v56.7c0,3.9-3.2,7-7,7
			H140.1z M59.8,241.6c-3.9,0-7-3.2-7-7v-56.7c0-3.9,3.2-7,7-7h56.7c1.9,0,3.7,0.8,5,2.1c1.3,1.3,2,3.1,2,5v56.6c0,3.9-3.2,7-7,7
			H59.8z M140.1,161.3c-3.9,0-7-3.2-7-7V97.6c0-3.9,3.2-7,7-7h56.7c3.9,0,7,3.2,7,7v56.7c0,3.9-3.2,7-7,7H140.1z M64.5,156.6
			c-3.9,0-7-3.2-7-7v-47.3c0-3.9,3.2-7,7-7h47.3c3.9,0,7,3.2,7,7v47.3c0,3.9-3.2,7-7,7H64.5z"/>
		<path style="fill:#1D1D1B;" d="M140.4,241.1c-3.9,0-7-3.2-7-7v-56.7c0-3.9,3.2-7,7-7h56.7c3.9,0,7,3.2,7,7.1v56.7c0,3.9-3.2,7-7,7
			H140.4z M60.1,241.1c-3.9,0-7-3.2-7-7v-56.7c0-3.9,3.2-7,7-7h56.7c1.9,0,3.7,0.8,5,2.1c1.3,1.3,2,3.1,2,5v56.6c0,3.9-3.2,7-7,7
			H60.1z M140.4,160.8c-3.9,0-7-3.2-7-7V97.1c0-3.9,3.2-7,7-7h56.7c3.9,0,7,3.2,7,7v56.7c0,3.9-3.2,7-7,7H140.4z M64.8,156.1
			c-3.9,0-7-3.2-7-7v-47.3c0-3.9,3.2-7,7-7h47.3c3.9,0,7,3.2,7,7v47.3c0,3.9-3.2,7-7,7H64.8z"/>
		<path style="fill:#1D1D1B;" d="M140.7,240.7c-3.9,0-7-3.2-7-7v-56.7c0-3.9,3.2-7,7-7h56.7c3.9,0,7,3.2,7,7.1v56.7c0,3.9-3.2,7-7,7
			H140.7z M60.4,240.7c-3.9,0-7-3.2-7-7v-56.7c0-3.9,3.2-7,7-7h56.7c1.9,0,3.7,0.8,5,2.1c1.3,1.3,2,3.1,2,5v56.6c0,3.9-3.2,7-7,7
			H60.4z M140.7,160.4c-3.9,0-7-3.2-7-7V96.6c0-3.9,3.2-7,7-7h56.7c3.9,0,7,3.2,7,7v56.7c0,3.9-3.2,7-7,7H140.7z M65.1,155.7
			c-3.9,0-7-3.2-7-7v-47.3c0-3.9,3.2-7,7-7h47.3c3.9,0,7,3.2,7,7v47.3c0,3.9-3.2,7-7,7H65.1z"/>
		<path style="fill:#1D1D1B;" d="M141,240.2c-3.9,0-7-3.2-7-7v-56.7c0-3.9,3.2-7,7-7h56.7c3.9,0,7,3.2,7,7.1v56.7c0,3.9-3.2,7-7,7
			H141z M60.7,240.2c-3.9,0-7-3.2-7-7v-56.7c0-3.9,3.2-7,7-7h56.7c1.9,0,3.7,0.8,5,2.1c1.3,1.3,2,3.1,2,5v56.6c0,3.9-3.2,7-7,7H60.7
			z M141,159.9c-3.9,0-7-3.2-7-7V96.2c0-3.9,3.2-7,7-7h56.7c3.9,0,7,3.2,7,7v56.7c0,3.9-3.2,7-7,7H141z M65.4,155.2
			c-3.9,0-7-3.2-7-7v-47.3c0-3.9,3.2-7,7-7h47.3c3.9,0,7,3.2,7,7v47.3c0,3.9-3.2,7-7,7H65.4z"/>
		<path style="fill:#1D1D1B;" d="M141.3,239.7c-3.9,0-7-3.2-7-7V176c0-3.9,3.2-7,7-7H198c3.9,0,7,3.2,7,7.1v56.7c0,3.9-3.2,7-7,7
			H141.3z M60.9,239.7c-3.9,0-7-3.2-7-7V176c0-3.9,3.2-7,7-7h56.7c1.9,0,3.7,0.8,5,2.1c1.3,1.3,2,3.1,2,5v56.6c0,3.9-3.2,7-7,7H60.9
			z M141.3,159.4c-3.9,0-7-3.2-7-7V95.7c0-3.9,3.2-7,7-7H198c3.9,0,7,3.2,7,7v56.7c0,3.9-3.2,7-7,7H141.3z M65.7,154.7
			c-3.9,0-7-3.2-7-7v-47.3c0-3.9,3.2-7,7-7h47.3c3.9,0,7,3.2,7,7v47.3c0,3.9-3.2,7-7,7H65.7z"/>
		<path style="fill:#1D1D1B;" d="M141.6,239.3c-3.9,0-7-3.2-7-7v-56.7c0-3.9,3.2-7,7-7h56.7c3.9,0,7,3.2,7,7.1v56.7c0,3.9-3.2,7-7,7
			H141.6z M61.2,239.3c-3.9,0-7-3.2-7-7v-56.7c0-3.9,3.2-7,7-7h56.7c1.9,0,3.7,0.8,5,2.1c1.3,1.3,2,3.1,2,5v56.6c0,3.9-3.2,7-7,7
			H61.2z M141.6,159c-3.9,0-7-3.2-7-7V95.2c0-3.9,3.2-7,7-7h56.7c3.9,0,7,3.2,7,7v56.7c0,3.9-3.2,7-7,7H141.6z M66,154.3
			c-3.9,0-7-3.2-7-7V100c0-3.9,3.2-7,7-7h47.3c3.9,0,7,3.2,7,7v47.3c0,3.9-3.2,7-7,7H66z"/>
		<path style="fill:#1D1D1B;" d="M141.9,238.8c-3.9,0-7-3.2-7-7v-56.7c0-3.9,3.2-7,7-7h56.7c3.9,0,7,3.2,7,7.1v56.7c0,3.9-3.2,7-7,7
			H141.9z M61.5,238.8c-3.9,0-7-3.2-7-7v-56.7c0-3.9,3.2-7,7-7h56.7c1.9,0,3.7,0.8,5,2.1c1.3,1.3,2,3.1,2,5v56.6c0,3.9-3.2,7-7,7
			H61.5z M141.9,158.5c-3.9,0-7-3.2-7-7V94.8c0-3.9,3.2-7,7-7h56.7c3.9,0,7,3.2,7,7v56.7c0,3.9-3.2,7-7,7H141.9z M66.3,153.8
			c-3.9,0-7-3.2-7-7V99.5c0-3.9,3.2-7,7-7h47.3c3.9,0,7,3.2,7,7v47.3c0,3.9-3.2,7-7,7H66.3z"/>
		<path style="fill:#1D1D1B;" d="M142.1,238.3c-3.9,0-7-3.2-7-7v-56.7c0-3.9,3.2-7,7-7h56.7c3.9,0,7,3.2,7,7.1v56.7c0,3.9-3.2,7-7,7
			H142.1z M61.8,238.3c-3.9,0-7-3.2-7-7v-56.7c0-3.9,3.2-7,7-7h56.7c1.9,0,3.7,0.8,5,2.1c1.3,1.3,2,3.1,2,5v56.6c0,3.9-3.2,7-7,7
			H61.8z M142.1,158c-3.9,0-7-3.2-7-7V94.3c0-3.9,3.2-7,7-7h56.7c3.9,0,7,3.2,7,7V151c0,3.9-3.2,7-7,7H142.1z M66.5,153.3
			c-3.9,0-7-3.2-7-7V99c0-3.9,3.2-7,7-7h47.3c3.9,0,7,3.2,7,7v47.3c0,3.9-3.2,7-7,7H66.5z"/>
		<path style="fill:#1D1D1B;" d="M142.4,237.9c-3.9,0-7-3.2-7-7v-56.7c0-3.9,3.2-7,7-7h56.7c3.9,0,7,3.2,7,7.1v56.7c0,3.9-3.2,7-7,7
			H142.4z M62.1,237.9c-3.9,0-7-3.2-7-7v-56.7c0-3.9,3.2-7,7-7h56.7c1.9,0,3.7,0.8,5,2.1c1.3,1.3,2,3.1,2,5v56.6c0,3.9-3.2,7-7,7
			H62.1z M142.4,157.6c-3.9,0-7-3.2-7-7V93.8c0-3.9,3.2-7,7-7h56.7c3.9,0,7,3.2,7,7v56.7c0,3.9-3.2,7-7,7H142.4z M66.8,152.9
			c-3.9,0-7-3.2-7-7V98.6c0-3.9,3.2-7,7-7h47.3c3.9,0,7,3.2,7,7v47.3c0,3.9-3.2,7-7,7H66.8z"/>
		<path style="fill:#1D1D1B;" d="M142.7,237.4c-3.9,0-7-3.2-7-7v-56.7c0-3.9,3.2-7,7-7h56.7c3.9,0,7,3.2,7,7.1v56.7c0,3.9-3.2,7-7,7
			H142.7z M62.4,237.4c-3.9,0-7-3.2-7-7v-56.7c0-3.9,3.2-7,7-7h56.7c1.9,0,3.7,0.8,5,2.1c1.3,1.3,2,3.1,2,5v56.6c0,3.9-3.2,7-7,7
			H62.4z M142.7,157.1c-3.9,0-7-3.2-7-7V93.4c0-3.9,3.2-7,7-7h56.7c3.9,0,7,3.2,7,7v56.7c0,3.9-3.2,7-7,7H142.7z M67.1,152.4
			c-3.9,0-7-3.2-7-7V98.1c0-3.9,3.2-7,7-7h47.3c3.9,0,7,3.2,7,7v47.3c0,3.9-3.2,7-7,7H67.1z"/>
		<path style="fill:#1D1D1B;" d="M143,236.9c-3.9,0-7-3.2-7-7v-56.7c0-3.9,3.2-7,7-7h56.7c3.9,0,7,3.2,7,7.1v56.7c0,3.9-3.2,7-7,7
			H143z M62.7,236.9c-3.9,0-7-3.2-7-7v-56.7c0-3.9,3.2-7,7-7h56.7c1.9,0,3.7,0.8,5,2.1c1.3,1.3,2,3.1,2,5v56.6c0,3.9-3.2,7-7,7H62.7
			z M143,156.6c-3.9,0-7-3.2-7-7V92.9c0-3.9,3.2-7,7-7h56.7c3.9,0,7,3.2,7,7v56.7c0,3.9-3.2,7-7,7H143z M67.4,151.9
			c-3.9,0-7-3.2-7-7V97.6c0-3.9,3.2-7,7-7h47.3c3.9,0,7,3.2,7,7v47.3c0,3.9-3.2,7-7,7H67.4z"/>
		<path style="fill:#1D1D1B;" d="M143.3,236.5c-3.9,0-7-3.2-7-7v-56.7c0-3.9,3.2-7,7-7H200c3.9,0,7,3.2,7,7.1v56.7c0,3.9-3.2,7-7,7
			H143.3z M63,236.5c-3.9,0-7-3.2-7-7v-56.7c0-3.9,3.2-7,7-7h56.7c1.9,0,3.7,0.8,5,2.1c1.3,1.3,2,3.1,2,5v56.6c0,3.9-3.2,7-7,7H63z
			 M143.3,156.2c-3.9,0-7-3.2-7-7V92.4c0-3.9,3.2-7,7-7H200c3.9,0,7,3.2,7,7v56.7c0,3.9-3.2,7-7,7H143.3z M67.7,151.5
			c-3.9,0-7-3.2-7-7V97.2c0-3.9,3.2-7,7-7H115c3.9,0,7,3.2,7,7v47.3c0,3.9-3.2,7-7,7H67.7z"/>
		<path style="fill:#1D1D1B;" d="M143.6,236c-3.9,0-7-3.2-7-7v-56.7c0-3.9,3.2-7,7-7h56.7c3.9,0,7,3.2,7,7.1V229c0,3.9-3.2,7-7,7
			H143.6z M63.3,236c-3.9,0-7-3.2-7-7v-56.7c0-3.9,3.2-7,7-7h56.7c1.9,0,3.7,0.8,5,2.1c1.3,1.3,2,3.1,2,5V229c0,3.9-3.2,7-7,7H63.3z
			 M143.6,155.7c-3.9,0-7-3.2-7-7V92c0-3.9,3.2-7,7-7h56.7c3.9,0,7,3.2,7,7v56.7c0,3.9-3.2,7-7,7H143.6z M68,151c-3.9,0-7-3.2-7-7
			V96.7c0-3.9,3.2-7,7-7h47.3c3.9,0,7,3.2,7,7V144c0,3.9-3.2,7-7,7H68z"/>
		<path style="fill:#1D1D1B;" d="M143.9,235.5c-3.9,0-7-3.2-7-7v-56.7c0-3.9,3.2-7,7-7h56.7c3.9,0,7,3.2,7,7.1v56.7c0,3.9-3.2,7-7,7
			H143.9z M63.5,235.5c-3.9,0-7-3.2-7-7v-56.7c0-3.9,3.2-7,7-7h56.7c1.9,0,3.7,0.8,5,2.1c1.3,1.3,2,3.1,2,5v56.6c0,3.9-3.2,7-7,7
			H63.5z M143.9,155.2c-3.9,0-7-3.2-7-7V91.5c0-3.9,3.2-7,7-7h56.7c3.9,0,7,3.2,7,7v56.7c0,3.9-3.2,7-7,7H143.9z M68.3,150.5
			c-3.9,0-7-3.2-7-7V96.2c0-3.9,3.2-7,7-7h47.3c3.9,0,7,3.2,7,7v47.3c0,3.9-3.2,7-7,7H68.3z"/>
		<path style="fill:#1D1D1B;" d="M144.2,235.1c-3.9,0-7-3.2-7-7v-56.7c0-3.9,3.2-7,7-7h56.7c3.9,0,7,3.2,7,7.1V228c0,3.9-3.2,7-7,7
			H144.2z M63.8,235.1c-3.9,0-7-3.2-7-7v-56.7c0-3.9,3.2-7,7-7h56.7c1.9,0,3.7,0.8,5,2.1c1.3,1.3,2,3.1,2,5V228c0,3.9-3.2,7-7,7
			H63.8z M144.2,154.8c-3.9,0-7-3.2-7-7V91c0-3.9,3.2-7,7-7h56.7c3.9,0,7,3.2,7,7v56.7c0,3.9-3.2,7-7,7H144.2z M68.6,150
			c-3.9,0-7-3.2-7-7V95.8c0-3.9,3.2-7,7-7h47.3c3.9,0,7,3.2,7,7V143c0,3.9-3.2,7-7,7H68.6z"/>
		<path style="fill:#1D1D1B;" d="M144.5,234.6c-3.9,0-7-3.2-7-7v-56.7c0-3.9,3.2-7,7-7h56.7c3.9,0,7,3.2,7,7.1v56.7c0,3.9-3.2,7-7,7
			H144.5z M64.1,234.6c-3.9,0-7-3.2-7-7v-56.7c0-3.9,3.2-7,7-7h56.7c1.9,0,3.7,0.8,5,2.1c1.3,1.3,2,3.1,2,5v56.6c0,3.9-3.2,7-7,7
			H64.1z M144.5,154.3c-3.9,0-7-3.2-7-7V90.6c0-3.9,3.2-7,7-7h56.7c3.9,0,7,3.2,7,7v56.7c0,3.9-3.2,7-7,7H144.5z M68.9,149.6
			c-3.9,0-7-3.2-7-7V95.3c0-3.9,3.2-7,7-7h47.3c3.9,0,7,3.2,7,7v47.3c0,3.9-3.2,7-7,7H68.9z"/>
		<path style="fill:#1D1D1B;" d="M144.7,234.1c-3.9,0-7-3.2-7-7v-56.7c0-3.9,3.2-7,7-7h56.7c3.9,0,7,3.2,7,7.1v56.7c0,3.9-3.2,7-7,7
			H144.7z M64.4,234.1c-3.9,0-7-3.2-7-7v-56.7c0-3.9,3.2-7,7-7h56.7c1.9,0,3.7,0.8,5,2.1c1.3,1.3,2,3.1,2,5v56.6c0,3.9-3.2,7-7,7
			H64.4z M144.7,153.8c-3.9,0-7-3.2-7-7V90.1c0-3.9,3.2-7,7-7h56.7c3.9,0,7,3.2,7,7v56.7c0,3.9-3.2,7-7,7H144.7z M69.1,149.1
			c-3.9,0-7-3.2-7-7V94.8c0-3.9,3.2-7,7-7h47.3c3.9,0,7,3.2,7,7v47.3c0,3.9-3.2,7-7,7H69.1z"/>
		<path style="fill:#1D1D1B;" d="M145,233.7c-3.9,0-7-3.2-7-7v-56.7c0-3.9,3.2-7,7-7h56.7c3.9,0,7,3.2,7,7.1v56.7c0,3.9-3.2,7-7,7
			H145z M64.7,233.7c-3.9,0-7-3.2-7-7v-56.7c0-3.9,3.2-7,7-7h56.7c1.9,0,3.7,0.8,5,2.1c1.3,1.3,2,3.1,2,5v56.6c0,3.9-3.2,7-7,7H64.7
			z M145,153.3c-3.9,0-7-3.2-7-7V89.6c0-3.9,3.2-7,7-7h56.7c3.9,0,7,3.2,7,7v56.7c0,3.9-3.2,7-7,7H145z M69.4,148.6
			c-3.9,0-7-3.2-7-7V94.4c0-3.9,3.2-7,7-7h47.3c3.9,0,7,3.2,7,7v47.3c0,3.9-3.2,7-7,7H69.4z"/>
		<path style="fill:#1D1D1B;" d="M145.3,233.2c-3.9,0-7-3.2-7-7v-56.7c0-3.9,3.2-7,7-7H202c3.9,0,7,3.2,7,7.1v56.7c0,3.9-3.2,7-7,7
			H145.3z M65,233.2c-3.9,0-7-3.2-7-7v-56.7c0-3.9,3.2-7,7-7h56.7c1.9,0,3.7,0.8,5,2.1c1.3,1.3,2,3.1,2,5v56.6c0,3.9-3.2,7-7,7H65z
			 M145.3,152.9c-3.9,0-7-3.2-7-7V89.2c0-3.9,3.2-7,7-7H202c3.9,0,7,3.2,7,7v56.7c0,3.9-3.2,7-7,7H145.3z M69.7,148.2
			c-3.9,0-7-3.2-7-7V93.9c0-3.9,3.2-7,7-7H117c3.9,0,7,3.2,7,7v47.3c0,3.9-3.2,7-7,7H69.7z"/>
		<path style="fill:#1D1D1B;" d="M145.6,232.7c-3.9,0-7-3.2-7-7V169c0-3.9,3.2-7,7-7h56.7c3.9,0,7,3.2,7,7.1v56.7c0,3.9-3.2,7-7,7
			H145.6z M65.3,232.7c-3.9,0-7-3.2-7-7V169c0-3.9,3.2-7,7-7H122c1.9,0,3.7,0.8,5,2.1c1.3,1.3,2,3.1,2,5v56.6c0,3.9-3.2,7-7,7H65.3z
			 M145.6,152.4c-3.9,0-7-3.2-7-7V88.7c0-3.9,3.2-7,7-7h56.7c3.9,0,7,3.2,7,7v56.7c0,3.9-3.2,7-7,7H145.6z M70,147.7
			c-3.9,0-7-3.2-7-7V93.4c0-3.9,3.2-7,7-7h47.3c3.9,0,7,3.2,7,7v47.3c0,3.9-3.2,7-7,7H70z"/>
		<path style="fill:#1D1D1B;" d="M145.9,232.3c-3.9,0-7-3.2-7-7v-56.7c0-3.9,3.2-7,7-7h56.7c3.9,0,7,3.2,7,7.1v56.7c0,3.9-3.2,7-7,7
			H145.9z M65.6,232.3c-3.9,0-7-3.2-7-7v-56.7c0-3.9,3.2-7,7-7h56.7c1.9,0,3.7,0.8,5,2.1c1.3,1.3,2,3.1,2,5v56.6c0,3.9-3.2,7-7,7
			H65.6z M145.9,151.9c-3.9,0-7-3.2-7-7V88.2c0-3.9,3.2-7,7-7h56.7c3.9,0,7,3.2,7,7v56.7c0,3.9-3.2,7-7,7H145.9z M70.3,147.2
			c-3.9,0-7-3.2-7-7V93c0-3.9,3.2-7,7-7h47.3c3.9,0,7,3.2,7,7v47.3c0,3.9-3.2,7-7,7H70.3z"/>
		<path style="fill:#1D1D1B;" d="M146.2,231.8c-3.9,0-7-3.2-7-7v-56.7c0-3.9,3.2-7,7-7h56.7c3.9,0,7,3.2,7,7.1v56.7c0,3.9-3.2,7-7,7
			H146.2z M65.9,231.8c-3.9,0-7-3.2-7-7v-56.7c0-3.9,3.2-7,7-7h56.7c1.9,0,3.7,0.8,5,2.1c1.3,1.3,2,3.1,2,5v56.6c0,3.9-3.2,7-7,7
			H65.9z M146.2,151.5c-3.9,0-7-3.2-7-7V87.8c0-3.9,3.2-7,7-7h56.7c3.9,0,7,3.2,7,7v56.7c0,3.9-3.2,7-7,7H146.2z M70.6,146.8
			c-3.9,0-7-3.2-7-7V92.5c0-3.9,3.2-7,7-7h47.3c3.9,0,7,3.2,7,7v47.3c0,3.9-3.2,7-7,7H70.6z"/>
		<path style="fill:#1D1D1B;" d="M146.5,231.3c-3.9,0-7-3.2-7-7v-56.7c0-3.9,3.2-7,7-7h56.7c3.9,0,7,3.2,7,7.1v56.7c0,3.9-3.2,7-7,7
			H146.5z M66.1,231.3c-3.9,0-7-3.2-7-7v-56.7c0-3.9,3.2-7,7-7h56.7c1.9,0,3.7,0.8,5,2.1c1.3,1.3,2,3.1,2,5v56.6c0,3.9-3.2,7-7,7
			H66.1z M146.5,151c-3.9,0-7-3.2-7-7V87.3c0-3.9,3.2-7,7-7h56.7c3.9,0,7,3.2,7,7V144c0,3.9-3.2,7-7,7H146.5z M70.9,146.3
			c-3.9,0-7-3.2-7-7V92c0-3.9,3.2-7,7-7h47.3c3.9,0,7,3.2,7,7v47.3c0,3.9-3.2,7-7,7H70.9z"/>
		<path style="fill:#1D1D1B;" d="M146.8,230.8c-3.9,0-7-3.2-7-7v-56.7c0-3.9,3.2-7,7-7h56.7c3.9,0,7,3.2,7,7.1v56.7c0,3.9-3.2,7-7,7
			H146.8z M66.4,230.8c-3.9,0-7-3.2-7-7v-56.7c0-3.9,3.2-7,7-7h56.7c1.9,0,3.7,0.8,5,2.1c1.3,1.3,2,3.1,2,5v56.6c0,3.9-3.2,7-7,7
			H66.4z M146.8,150.5c-3.9,0-7-3.2-7-7V86.8c0-3.9,3.2-7,7-7h56.7c3.9,0,7,3.2,7,7v56.7c0,3.9-3.2,7-7,7H146.8z M71.2,145.8
			c-3.9,0-7-3.2-7-7V91.6c0-3.9,3.2-7,7-7h47.3c3.9,0,7,3.2,7,7v47.3c0,3.9-3.2,7-7,7H71.2z"/>
		<path style="fill:#1D1D1B;" d="M147.1,230.4c-3.9,0-7-3.2-7-7v-56.7c0-3.9,3.2-7,7-7h56.7c3.9,0,7,3.2,7,7.1v56.7c0,3.9-3.2,7-7,7
			H147.1z M66.7,230.4c-3.9,0-7-3.2-7-7v-56.7c0-3.9,3.2-7,7-7h56.7c1.9,0,3.7,0.8,5,2.1c1.3,1.3,2,3.1,2,5v56.6c0,3.9-3.2,7-7,7
			H66.7z M147.1,150.1c-3.9,0-7-3.2-7-7V86.3c0-3.9,3.2-7,7-7h56.7c3.9,0,7,3.2,7,7V143c0,3.9-3.2,7-7,7H147.1z M71.5,145.4
			c-3.9,0-7-3.2-7-7V91.1c0-3.9,3.2-7,7-7h47.3c3.9,0,7,3.2,7,7v47.3c0,3.9-3.2,7-7,7H71.5z"/>
		<path style="fill:#1D1D1B;" d="M147.3,229.9c-3.9,0-7-3.2-7-7v-56.7c0-3.9,3.2-7,7-7H204c3.9,0,7,3.2,7,7.1v56.7c0,3.9-3.2,7-7,7
			H147.3z M67,229.9c-3.9,0-7-3.2-7-7v-56.7c0-3.9,3.2-7,7-7h56.7c1.9,0,3.7,0.8,5,2.1c1.3,1.3,2,3.1,2,5v56.6c0,3.9-3.2,7-7,7H67z
			 M147.3,149.6c-3.9,0-7-3.2-7-7V85.9c0-3.9,3.2-7,7-7H204c3.9,0,7,3.2,7,7v56.7c0,3.9-3.2,7-7,7H147.3z M71.7,144.9
			c-3.9,0-7-3.2-7-7V90.6c0-3.9,3.2-7,7-7H119c3.9,0,7,3.2,7,7v47.3c0,3.9-3.2,7-7,7H71.7z"/>
		<path style="fill:#1D1D1B;" d="M147.6,229.4c-3.9,0-7-3.2-7-7v-56.7c0-3.9,3.2-7,7-7h56.7c3.9,0,7,3.2,7,7.1v56.7c0,3.9-3.2,7-7,7
			H147.6z M67.3,229.4c-3.9,0-7-3.2-7-7v-56.7c0-3.9,3.2-7,7-7H124c1.9,0,3.7,0.8,5,2.1c1.3,1.3,2,3.1,2,5v56.6c0,3.9-3.2,7-7,7
			H67.3z M147.6,149.1c-3.9,0-7-3.2-7-7V85.4c0-3.9,3.2-7,7-7h56.7c3.9,0,7,3.2,7,7v56.7c0,3.9-3.2,7-7,7H147.6z M72,144.4
			c-3.9,0-7-3.2-7-7V90.1c0-3.9,3.2-7,7-7h47.3c3.9,0,7,3.2,7,7v47.3c0,3.9-3.2,7-7,7H72z"/>
		<path style="fill:#1D1D1B;" d="M147.9,229c-3.9,0-7-3.2-7-7v-56.7c0-3.9,3.2-7,7-7h56.7c3.9,0,7,3.2,7,7.1v56.7c0,3.9-3.2,7-7,7
			H147.9z M67.6,229c-3.9,0-7-3.2-7-7v-56.7c0-3.9,3.2-7,7-7h56.7c1.9,0,3.7,0.8,5,2.1c1.3,1.3,2,3.1,2,5v56.6c0,3.9-3.2,7-7,7H67.6
			z M147.9,148.7c-3.9,0-7-3.2-7-7V84.9c0-3.9,3.2-7,7-7h56.7c3.9,0,7,3.2,7,7v56.7c0,3.9-3.2,7-7,7H147.9z M72.3,144
			c-3.9,0-7-3.2-7-7V89.7c0-3.9,3.2-7,7-7h47.3c3.9,0,7,3.2,7,7v47.3c0,3.9-3.2,7-7,7H72.3z"/>
		<path style="fill:#1D1D1B;" d="M148.2,228.5c-3.9,0-7-3.2-7-7v-56.7c0-3.9,3.2-7,7-7h56.7c3.9,0,7,3.2,7,7.1v56.7c0,3.9-3.2,7-7,7
			H148.2z M67.9,228.5c-3.9,0-7-3.2-7-7v-56.7c0-3.9,3.2-7,7-7h56.7c1.9,0,3.7,0.8,5,2.1c1.3,1.3,2,3.1,2,5v56.6c0,3.9-3.2,7-7,7
			H67.9z M148.2,148.2c-3.9,0-7-3.2-7-7V84.5c0-3.9,3.2-7,7-7h56.7c3.9,0,7,3.2,7,7v56.7c0,3.9-3.2,7-7,7H148.2z M72.6,143.5
			c-3.9,0-7-3.2-7-7V89.2c0-3.9,3.2-7,7-7h47.3c3.9,0,7,3.2,7,7v47.3c0,3.9-3.2,7-7,7H72.6z"/>
		<path style="fill:#1D1D1B;" d="M148.5,228c-3.9,0-7-3.2-7-7v-56.7c0-3.9,3.2-7,7-7h56.7c3.9,0,7,3.2,7,7.1V221c0,3.9-3.2,7-7,7
			H148.5z M68.2,228c-3.9,0-7-3.2-7-7v-56.7c0-3.9,3.2-7,7-7h56.7c1.9,0,3.7,0.8,5,2.1c1.3,1.3,2,3.1,2,5V221c0,3.9-3.2,7-7,7H68.2z
			 M148.5,147.7c-3.9,0-7-3.2-7-7V84c0-3.9,3.2-7,7-7h56.7c3.9,0,7,3.2,7,7v56.7c0,3.9-3.2,7-7,7H148.5z M72.9,143c-3.9,0-7-3.2-7-7
			V88.7c0-3.9,3.2-7,7-7h47.3c3.9,0,7,3.2,7,7V136c0,3.9-3.2,7-7,7H72.9z"/>
		<path style="fill:#1D1D1B;" d="M148.8,227.6c-3.9,0-7-3.2-7-7v-56.7c0-3.9,3.2-7,7-7h56.7c3.9,0,7,3.2,7,7.1v56.7c0,3.9-3.2,7-7,7
			H148.8z M68.4,227.6c-3.9,0-7-3.2-7-7v-56.7c0-3.9,3.2-7,7-7h56.7c1.9,0,3.7,0.8,5,2.1c1.3,1.3,2,3.1,2,5v56.6c0,3.9-3.2,7-7,7
			H68.4z M148.8,147.3c-3.9,0-7-3.2-7-7V83.5c0-3.9,3.2-7,7-7h56.7c3.9,0,7,3.2,7,7v56.7c0,3.9-3.2,7-7,7H148.8z M73.2,142.6
			c-3.9,0-7-3.2-7-7V88.3c0-3.9,3.2-7,7-7h47.3c3.9,0,7,3.2,7,7v47.3c0,3.9-3.2,7-7,7H73.2z"/>
		<path style="fill:#1D1D1B;" d="M149.1,227.1c-3.9,0-7-3.2-7-7v-56.7c0-3.9,3.2-7,7-7h56.7c3.9,0,7,3.2,7,7.1v56.7c0,3.9-3.2,7-7,7
			H149.1z M68.7,227.1c-3.9,0-7-3.2-7-7v-56.7c0-3.9,3.2-7,7-7h56.7c1.9,0,3.7,0.8,5,2.1c1.3,1.3,2,3.1,2,5v56.6c0,3.9-3.2,7-7,7
			H68.7z M149.1,146.8c-3.9,0-7-3.2-7-7V83.1c0-3.9,3.2-7,7-7h56.7c3.9,0,7,3.2,7,7v56.7c0,3.9-3.2,7-7,7H149.1z M73.5,142.1
			c-3.9,0-7-3.2-7-7V87.8c0-3.9,3.2-7,7-7h47.3c3.9,0,7,3.2,7,7v47.3c0,3.9-3.2,7-7,7H73.5z"/>
		<path style="fill:#1D1D1B;" d="M149.4,226.6c-3.9,0-7-3.2-7-7v-56.7c0-3.9,3.2-7,7-7h56.7c3.9,0,7,3.2,7,7.1v56.7c0,3.9-3.2,7-7,7
			H149.4z M69,226.6c-3.9,0-7-3.2-7-7v-56.7c0-3.9,3.2-7,7-7h56.7c1.9,0,3.7,0.8,5,2.1c1.3,1.3,2,3.1,2,5v56.6c0,3.9-3.2,7-7,7H69z
			 M149.4,146.3c-3.9,0-7-3.2-7-7V82.6c0-3.9,3.2-7,7-7h56.7c3.9,0,7,3.2,7,7v56.7c0,3.9-3.2,7-7,7H149.4z M73.8,141.6
			c-3.9,0-7-3.2-7-7V87.3c0-3.9,3.2-7,7-7H121c3.9,0,7,3.2,7,7v47.3c0,3.9-3.2,7-7,7H73.8z"/>
		<path style="fill:#1D1D1B;" d="M149.6,226.2c-3.9,0-7-3.2-7-7v-56.7c0-3.9,3.2-7,7-7h56.7c3.9,0,7,3.2,7,7.1v56.7c0,3.9-3.2,7-7,7
			H149.6z M69.3,226.2c-3.9,0-7-3.2-7-7v-56.7c0-3.9,3.2-7,7-7H126c1.9,0,3.7,0.8,5,2.1c1.3,1.3,2,3.1,2,5v56.6c0,3.9-3.2,7-7,7
			H69.3z M149.6,145.9c-3.9,0-7-3.2-7-7V82.1c0-3.9,3.2-7,7-7h56.7c3.9,0,7,3.2,7,7v56.7c0,3.9-3.2,7-7,7H149.6z M74,141.2
			c-3.9,0-7-3.2-7-7V86.9c0-3.9,3.2-7,7-7h47.3c3.9,0,7,3.2,7,7v47.3c0,3.9-3.2,7-7,7H74z"/>
		<path style="fill:#1D1D1B;" d="M149.9,225.7c-3.9,0-7-3.2-7-7V162c0-3.9,3.2-7,7-7h56.7c3.9,0,7,3.2,7,7.1v56.7c0,3.9-3.2,7-7,7
			H149.9z M69.6,225.7c-3.9,0-7-3.2-7-7V162c0-3.9,3.2-7,7-7h56.7c1.9,0,3.7,0.8,5,2.1c1.3,1.3,2,3.1,2,5v56.6c0,3.9-3.2,7-7,7H69.6
			z M149.9,145.4c-3.9,0-7-3.2-7-7V81.7c0-3.9,3.2-7,7-7h56.7c3.9,0,7,3.2,7,7v56.7c0,3.9-3.2,7-7,7H149.9z M74.3,140.7
			c-3.9,0-7-3.2-7-7V86.4c0-3.9,3.2-7,7-7h47.3c3.9,0,7,3.2,7,7v47.3c0,3.9-3.2,7-7,7H74.3z"/>
		<path style="fill:#1D1D1B;" d="M150.2,225.2c-3.9,0-7-3.2-7-7v-56.7c0-3.9,3.2-7,7-7h56.7c3.9,0,7,3.2,7,7.1v56.7c0,3.9-3.2,7-7,7
			H150.2z M69.9,225.2c-3.9,0-7-3.2-7-7v-56.7c0-3.9,3.2-7,7-7h56.7c1.9,0,3.7,0.8,5,2.1c1.3,1.3,2,3.1,2,5v56.6c0,3.9-3.2,7-7,7
			H69.9z M150.2,144.9c-3.9,0-7-3.2-7-7V81.2c0-3.9,3.2-7,7-7h56.7c3.9,0,7,3.2,7,7v56.7c0,3.9-3.2,7-7,7H150.2z M74.6,140.2
			c-3.9,0-7-3.2-7-7V85.9c0-3.9,3.2-7,7-7h47.3c3.9,0,7,3.2,7,7v47.3c0,3.9-3.2,7-7,7H74.6z"/>
		<path style="fill:#1D1D1B;" d="M150.5,224.8c-3.9,0-7-3.2-7-7V161c0-3.9,3.2-7,7-7h56.7c3.9,0,7,3.2,7,7.1v56.7c0,3.9-3.2,7-7,7
			H150.5z M70.2,224.8c-3.9,0-7-3.2-7-7V161c0-3.9,3.2-7,7-7h56.7c1.9,0,3.7,0.8,5,2.1c1.3,1.3,2,3.1,2,5v56.6c0,3.9-3.2,7-7,7H70.2
			z M150.5,144.5c-3.9,0-7-3.2-7-7V80.7c0-3.9,3.2-7,7-7h56.7c3.9,0,7,3.2,7,7v56.7c0,3.9-3.2,7-7,7H150.5z M74.9,139.8
			c-3.9,0-7-3.2-7-7V85.5c0-3.9,3.2-7,7-7h47.3c3.9,0,7,3.2,7,7v47.3c0,3.9-3.2,7-7,7H74.9z"/>
		<path style="fill:#1D1D1B;" d="M150.8,224.3c-3.9,0-7-3.2-7-7v-56.7c0-3.9,3.2-7,7-7h56.7c3.9,0,7,3.2,7,7.1v56.7c0,3.9-3.2,7-7,7
			H150.8z M70.5,224.3c-3.9,0-7-3.2-7-7v-56.7c0-3.9,3.2-7,7-7h56.7c1.9,0,3.7,0.8,5,2.1c1.3,1.3,2,3.1,2,5v56.6c0,3.9-3.2,7-7,7
			H70.5z M150.8,144c-3.9,0-7-3.2-7-7V80.3c0-3.9,3.2-7,7-7h56.7c3.9,0,7,3.2,7,7V137c0,3.9-3.2,7-7,7H150.8z M75.2,139.3
			c-3.9,0-7-3.2-7-7V85c0-3.9,3.2-7,7-7h47.3c3.9,0,7,3.2,7,7v47.3c0,3.9-3.2,7-7,7H75.2z"/>
		<path style="fill:#1D1D1B;" d="M151.1,223.8c-3.9,0-7-3.2-7-7v-56.7c0-3.9,3.2-7,7-7h56.7c3.9,0,7,3.2,7,7.1v56.7c0,3.9-3.2,7-7,7
			H151.1z M70.8,223.8c-3.9,0-7-3.2-7-7v-56.7c0-3.9,3.2-7,7-7h56.7c1.9,0,3.7,0.8,5,2.1c1.3,1.3,2,3.1,2,5v56.6c0,3.9-3.2,7-7,7
			H70.8z M151.1,143.5c-3.9,0-7-3.2-7-7V79.8c0-3.9,3.2-7,7-7h56.7c3.9,0,7,3.2,7,7v56.7c0,3.9-3.2,7-7,7H151.1z M75.5,138.8
			c-3.9,0-7-3.2-7-7V84.5c0-3.9,3.2-7,7-7h47.3c3.9,0,7,3.2,7,7v47.3c0,3.9-3.2,7-7,7H75.5z"/>
		<path style="fill:#1D1D1B;" d="M151.4,223.4c-3.9,0-7-3.2-7-7v-56.7c0-3.9,3.2-7,7-7h56.7c3.9,0,7,3.2,7,7.1v56.7c0,3.9-3.2,7-7,7
			H151.4z M71,223.4c-3.9,0-7-3.2-7-7v-56.7c0-3.9,3.2-7,7-7h56.7c1.9,0,3.7,0.8,5,2.1c1.3,1.3,2,3.1,2,5v56.6c0,3.9-3.2,7-7,7H71z
			 M151.4,143.1c-3.9,0-7-3.2-7-7V79.3c0-3.9,3.2-7,7-7h56.7c3.9,0,7,3.2,7,7V136c0,3.9-3.2,7-7,7H151.4z M75.8,138.3
			c-3.9,0-7-3.2-7-7V84.1c0-3.9,3.2-7,7-7H123c3.9,0,7,3.2,7,7v47.3c0,3.9-3.2,7-7,7H75.8z"/>
		<path style="fill:#1D1D1B;" d="M151.7,222.9c-3.9,0-7-3.2-7-7v-56.7c0-3.9,3.2-7,7-7h56.7c3.9,0,7,3.2,7,7.1v56.7c0,3.9-3.2,7-7,7
			H151.7z M71.3,222.9c-3.9,0-7-3.2-7-7v-56.7c0-3.9,3.2-7,7-7H128c1.9,0,3.7,0.8,5,2.1c1.3,1.3,2,3.1,2,5v56.6c0,3.9-3.2,7-7,7
			H71.3z M151.7,142.6c-3.9,0-7-3.2-7-7V78.9c0-3.9,3.2-7,7-7h56.7c3.9,0,7,3.2,7,7v56.7c0,3.9-3.2,7-7,7H151.7z M76.1,137.9
			c-3.9,0-7-3.2-7-7V83.6c0-3.9,3.2-7,7-7h47.3c3.9,0,7,3.2,7,7v47.3c0,3.9-3.2,7-7,7H76.1z"/>
		<path style="fill:#1D1D1B;" d="M152,222.4c-3.9,0-7-3.2-7-7v-56.7c0-3.9,3.2-7,7-7h56.7c3.9,0,7,3.2,7,7.1v56.7c0,3.9-3.2,7-7,7
			H152z M71.6,222.4c-3.9,0-7-3.2-7-7v-56.7c0-3.9,3.2-7,7-7h56.7c1.9,0,3.7,0.8,5,2.1c1.3,1.3,2,3.1,2,5v56.6c0,3.9-3.2,7-7,7H71.6
			z M152,142.1c-3.9,0-7-3.2-7-7V78.4c0-3.9,3.2-7,7-7h56.7c3.9,0,7,3.2,7,7v56.7c0,3.9-3.2,7-7,7H152z M76.4,137.4
			c-3.9,0-7-3.2-7-7V83.1c0-3.9,3.2-7,7-7h47.3c3.9,0,7,3.2,7,7v47.3c0,3.9-3.2,7-7,7H76.4z"/>
		<path style="fill:#1D1D1B;" d="M152.2,222c-3.9,0-7-3.2-7-7v-56.7c0-3.9,3.2-7,7-7h56.7c3.9,0,7,3.2,7,7.1v56.7c0,3.9-3.2,7-7,7
			H152.2z M71.9,222c-3.9,0-7-3.2-7-7v-56.7c0-3.9,3.2-7,7-7h56.7c1.9,0,3.7,0.8,5,2.1c1.3,1.3,2,3.1,2,5v56.6c0,3.9-3.2,7-7,7H71.9
			z M152.2,141.7c-3.9,0-7-3.2-7-7V77.9c0-3.9,3.2-7,7-7h56.7c3.9,0,7,3.2,7,7v56.7c0,3.9-3.2,7-7,7H152.2z M76.6,136.9
			c-3.9,0-7-3.2-7-7V82.7c0-3.9,3.2-7,7-7h47.3c3.9,0,7,3.2,7,7v47.3c0,3.9-3.2,7-7,7H76.6z"/>
		<path style="fill:#1D1D1B;" d="M152.5,221.5c-3.9,0-7-3.2-7-7v-56.7c0-3.9,3.2-7,7-7h56.7c3.9,0,7,3.2,7,7.1v56.7c0,3.9-3.2,7-7,7
			H152.5z M72.2,221.5c-3.9,0-7-3.2-7-7v-56.7c0-3.9,3.2-7,7-7h56.7c1.9,0,3.7,0.8,5,2.1c1.3,1.3,2,3.1,2,5v56.6c0,3.9-3.2,7-7,7
			H72.2z M152.5,141.2c-3.9,0-7-3.2-7-7V77.5c0-3.9,3.2-7,7-7h56.7c3.9,0,7,3.2,7,7v56.7c0,3.9-3.2,7-7,7H152.5z M76.9,136.5
			c-3.9,0-7-3.2-7-7V82.2c0-3.9,3.2-7,7-7h47.3c3.9,0,7,3.2,7,7v47.3c0,3.9-3.2,7-7,7H76.9z"/>
		<path style="fill:#1D1D1B;" d="M152.8,221c-3.9,0-7-3.2-7-7v-56.7c0-3.9,3.2-7,7-7h56.7c3.9,0,7,3.2,7,7.1V214c0,3.9-3.2,7-7,7
			H152.8z M72.5,221c-3.9,0-7-3.2-7-7v-56.7c0-3.9,3.2-7,7-7h56.7c1.9,0,3.7,0.8,5,2.1c1.3,1.3,2,3.1,2,5V214c0,3.9-3.2,7-7,7H72.5z
			 M152.8,140.7c-3.9,0-7-3.2-7-7V77c0-3.9,3.2-7,7-7h56.7c3.9,0,7,3.2,7,7v56.7c0,3.9-3.2,7-7,7H152.8z M77.2,136c-3.9,0-7-3.2-7-7
			V81.7c0-3.9,3.2-7,7-7h47.3c3.9,0,7,3.2,7,7V129c0,3.9-3.2,7-7,7H77.2z"/>
		<path style="fill:#1D1D1B;" d="M153.1,220.6c-3.9,0-7-3.2-7-7v-56.7c0-3.9,3.2-7,7-7h56.7c3.9,0,7,3.2,7,7.1v56.7c0,3.9-3.2,7-7,7
			H153.1z M72.8,220.6c-3.9,0-7-3.2-7-7v-56.7c0-3.9,3.2-7,7-7h56.7c1.9,0,3.7,0.8,5,2.1c1.3,1.3,2,3.1,2,5v56.6c0,3.9-3.2,7-7,7
			H72.8z M153.1,140.2c-3.9,0-7-3.2-7-7V76.5c0-3.9,3.2-7,7-7h56.7c3.9,0,7,3.2,7,7v56.7c0,3.9-3.2,7-7,7H153.1z M77.5,135.5
			c-3.9,0-7-3.2-7-7V81.3c0-3.9,3.2-7,7-7h47.3c3.9,0,7,3.2,7,7v47.3c0,3.9-3.2,7-7,7H77.5z"/>
		<path style="fill:#1D1D1B;" d="M153.4,220.1c-3.9,0-7-3.2-7-7v-56.7c0-3.9,3.2-7,7-7h56.7c3.9,0,7,3.2,7,7.1v56.7c0,3.9-3.2,7-7,7
			H153.4z M73.1,220.1c-3.9,0-7-3.2-7-7v-56.7c0-3.9,3.2-7,7-7h56.7c1.9,0,3.7,0.8,5,2.1c1.3,1.3,2,3.1,2,5v56.6c0,3.9-3.2,7-7,7
			H73.1z M153.4,139.8c-3.9,0-7-3.2-7-7V76.1c0-3.9,3.2-7,7-7h56.7c3.9,0,7,3.2,7,7v56.7c0,3.9-3.2,7-7,7H153.4z M77.8,135.1
			c-3.9,0-7-3.2-7-7V80.8c0-3.9,3.2-7,7-7h47.3c3.9,0,7,3.2,7,7V128c0,3.9-3.2,7-7,7H77.8z"/>
		<path style="fill:#1D1D1B;" d="M153.7,219.6c-3.9,0-7-3.2-7-7v-56.7c0-3.9,3.2-7,7-7h56.7c3.9,0,7,3.2,7,7.1v56.7c0,3.9-3.2,7-7,7
			H153.7z M73.4,219.6c-3.9,0-7-3.2-7-7v-56.7c0-3.9,3.2-7,7-7H130c1.9,0,3.7,0.8,5,2.1c1.3,1.3,2,3.1,2,5v56.6c0,3.9-3.2,7-7,7
			H73.4z M153.7,139.3c-3.9,0-7-3.2-7-7V75.6c0-3.9,3.2-7,7-7h56.7c3.9,0,7,3.2,7,7v56.7c0,3.9-3.2,7-7,7H153.7z M78.1,134.6
			c-3.9,0-7-3.2-7-7V80.3c0-3.9,3.2-7,7-7h47.3c3.9,0,7,3.2,7,7v47.3c0,3.9-3.2,7-7,7H78.1z"/>
		<path style="fill:#1D1D1B;" d="M154,219.1c-3.9,0-7-3.2-7-7v-56.7c0-3.9,3.2-7,7-7h56.7c3.9,0,7,3.2,7,7.1v56.7c0,3.9-3.2,7-7,7
			H154z M73.6,219.1c-3.9,0-7-3.2-7-7v-56.7c0-3.9,3.2-7,7-7h56.7c1.9,0,3.7,0.8,5,2.1c1.3,1.3,2,3.1,2,5v56.6c0,3.9-3.2,7-7,7H73.6
			z M154,138.8c-3.9,0-7-3.2-7-7V75.1c0-3.9,3.2-7,7-7h56.7c3.9,0,7,3.2,7,7v56.7c0,3.9-3.2,7-7,7H154z M78.4,134.1
			c-3.9,0-7-3.2-7-7V79.9c0-3.9,3.2-7,7-7h47.3c3.9,0,7,3.2,7,7v47.3c0,3.9-3.2,7-7,7H78.4z"/>
		<path style="fill:#1D1D1B;" d="M154.3,218.7c-3.9,0-7-3.2-7-7V155c0-3.9,3.2-7,7-7H211c3.9,0,7,3.2,7,7.1v56.7c0,3.9-3.2,7-7,7
			H154.3z M73.9,218.7c-3.9,0-7-3.2-7-7V155c0-3.9,3.2-7,7-7h56.7c1.9,0,3.7,0.8,5,2.1c1.3,1.3,2,3.1,2,5v56.6c0,3.9-3.2,7-7,7H73.9
			z M154.3,138.4c-3.9,0-7-3.2-7-7V74.7c0-3.9,3.2-7,7-7H211c3.9,0,7,3.2,7,7v56.7c0,3.9-3.2,7-7,7H154.3z M78.7,133.7
			c-3.9,0-7-3.2-7-7V79.4c0-3.9,3.2-7,7-7h47.3c3.9,0,7,3.2,7,7v47.3c0,3.9-3.2,7-7,7H78.7z"/>
		<path style="fill:#1D1D1B;" d="M154.6,218.2c-3.9,0-7-3.2-7-7v-56.7c0-3.9,3.2-7,7-7h56.7c3.9,0,7,3.2,7,7.1v56.7c0,3.9-3.2,7-7,7
			H154.6z M74.2,218.2c-3.9,0-7-3.2-7-7v-56.7c0-3.9,3.2-7,7-7h56.7c1.9,0,3.7,0.8,5,2.1c1.3,1.3,2,3.1,2,5v56.6c0,3.9-3.2,7-7,7
			H74.2z M154.6,137.9c-3.9,0-7-3.2-7-7V74.2c0-3.9,3.2-7,7-7h56.7c3.9,0,7,3.2,7,7v56.7c0,3.9-3.2,7-7,7H154.6z M79,133.2
			c-3.9,0-7-3.2-7-7V78.9c0-3.9,3.2-7,7-7h47.3c3.9,0,7,3.2,7,7v47.3c0,3.9-3.2,7-7,7H79z"/>
	</g>
	<path style="fill:#006633;" d="M154.6,218.2c-3.9,0-7-3.2-7-7v-56.7c0-3.9,3.2-7,7-7h56.7c3.9,0,7,3.2,7,7.1v56.7c0,3.9-3.2,7-7,7
		H154.6z M74.2,218.2c-3.9,0-7-3.2-7-7v-56.7c0-3.9,3.2-7,7-7h56.7c1.9,0,3.7,0.8,5,2.1c1.3,1.3,2,3.1,2,5v56.6c0,3.9-3.2,7-7,7
		H74.2z M154.6,137.9c-3.9,0-7-3.2-7-7V74.2c0-3.9,3.2-7,7-7h56.7c3.9,0,7,3.2,7,7v56.7c0,3.9-3.2,7-7,7H154.6z M79,133.2
		c-3.9,0-7-3.2-7-7V78.9c0-3.9,3.2-7,7-7h47.3c3.9,0,7,3.2,7,7v47.3c0,3.9-3.2,7-7,7H79z"/>
	<path style="fill:#3AAA35;" d="M130.9,152.1H74.2c-1.3,0-2.4,1.1-2.4,2.4v56.7c0,1.3,1.1,2.4,2.4,2.4h56.7c1.3,0,2.4-1.1,2.4-2.4
		v-56.7C133.3,153.2,132.2,152.1,130.9,152.1z M126.2,76.6H79c-1.3,0-2.4,1.1-2.4,2.4v47.3c0,1.3,1.1,2.4,2.4,2.4h47.3
		c1.3,0,2.4-1.1,2.4-2.4V78.9C128.6,77.6,127.5,76.6,126.2,76.6z M211.2,71.8h-56.7c-1.3,0-2.4,1.1-2.4,2.4v56.7
		c0,1.3,1.1,2.4,2.4,2.4h56.7c1.3,0,2.4-1.1,2.4-2.4V74.2C213.6,72.9,212.5,71.8,211.2,71.8z M211.2,152.1h-56.7
		c-1.3,0-2.4,1.1-2.4,2.4v56.7c0,1.3,1.1,2.4,2.4,2.4h56.7c1.3,0,2.4-1.1,2.4-2.4v-56.7C213.6,153.2,212.5,152.1,211.2,152.1z"/>
	<path style="fill:#95C11F;" d="M154.2,212.5v-53.4h53.4v53.4H154.2z M73.9,212.5v-53.4h53.4l0,53.4H73.9z M154.2,132.2V78.8h53.4
		v53.4H154.2z M78.6,127.5v-44h44v44H78.6z"/>
	<path style="fill:none;stroke:#FFFFFF;stroke-width:2;" d="M130.9,152.1H74.2c-1.3,0-2.4,1.1-2.4,2.4v56.7c0,1.3,1.1,2.4,2.4,2.4
		h56.7c1.3,0,2.4-1.1,2.4-2.4v-56.7C133.3,153.2,132.2,152.1,130.9,152.1z M126.2,76.6H79c-1.3,0-2.4,1.1-2.4,2.4v47.3
		c0,1.3,1.1,2.4,2.4,2.4h47.3c1.3,0,2.4-1.1,2.4-2.4V78.9C128.6,77.6,127.5,76.6,126.2,76.6z M211.2,71.8h-56.7
		c-1.3,0-2.4,1.1-2.4,2.4v56.7c0,1.3,1.1,2.4,2.4,2.4h56.7c1.3,0,2.4-1.1,2.4-2.4V74.2C213.6,72.9,212.5,71.8,211.2,71.8z
		 M211.2,152.1h-56.7c-1.3,0-2.4,1.1-2.4,2.4v56.7c0,1.3,1.1,2.4,2.4,2.4h56.7c1.3,0,2.4-1.1,2.4-2.4v-56.7
		C213.6,153.2,212.5,152.1,211.2,152.1z"/>
	<g>
		<pattern  id="SVGID_2_" xlink:href="#_x31_0_dpi_20_x25_" patternTransform="matrix(1.0574 0 0 1.0574 456.0473 564.0492)">
		</pattern>
		<path style="fill:url(#SVGID_2_);" d="M130.9,152.1H74.2c-1.3,0-2.4,1.1-2.4,2.4v56.7c0,1.3,1.1,2.4,2.4,2.4h56.7
			c1.3,0,2.4-1.1,2.4-2.4v-56.7C133.3,153.2,132.2,152.1,130.9,152.1z M126.2,76.6H79c-1.3,0-2.4,1.1-2.4,2.4v47.3
			c0,1.3,1.1,2.4,2.4,2.4h47.3c1.3,0,2.4-1.1,2.4-2.4V78.9C128.6,77.6,127.5,76.6,126.2,76.6z M211.2,71.8h-56.7
			c-1.3,0-2.4,1.1-2.4,2.4v56.7c0,1.3,1.1,2.4,2.4,2.4h56.7c1.3,0,2.4-1.1,2.4-2.4V74.2C213.6,72.9,212.5,71.8,211.2,71.8z
			 M211.2,152.1h-56.7c-1.3,0-2.4,1.1-2.4,2.4v56.7c0,1.3,1.1,2.4,2.4,2.4h56.7c1.3,0,2.4-1.1,2.4-2.4v-56.7
			C213.6,153.2,212.5,152.1,211.2,152.1z"/>
	</g>
</g>
</svg>
